<mxfile host="app.diagrams.net" modified="2022-10-28T12:29:28.611Z" agent="5.0 (Windows NT 10.0; Win64; x64) AppleWebKit/537.36 (KHTML, like Gecko) Chrome/106.0.0.0 Safari/537.36" etag="WRuQ0JQS_4haKD42oArm" version="20.4.1" type="github" pages="2">
  <diagram name="Page-1" id="5f0bae14-7c28-e335-631c-24af17079c00">
    <mxGraphModel dx="1422" dy="705" grid="1" gridSize="10" guides="1" tooltips="1" connect="1" arrows="1" fold="1" page="1" pageScale="1" pageWidth="1100" pageHeight="850" background="none" math="0" shadow="0">
      <root>
        <mxCell id="0" />
        <mxCell id="1" parent="0" />
        <mxCell id="39150e848f15840c-1" value="Block" style="verticalAlign=top;align=left;spacingTop=8;spacingLeft=2;spacingRight=12;shape=cube;size=10;direction=south;fontStyle=4;html=1;rounded=0;shadow=0;comic=0;labelBackgroundColor=none;strokeWidth=1;fontFamily=Verdana;fontSize=12" parent="1" vertex="1">
          <mxGeometry x="120" y="70" width="330" height="220" as="geometry" />
        </mxCell>
        <mxCell id="39150e848f15840c-2" value="Block" style="verticalAlign=top;align=left;spacingTop=8;spacingLeft=2;spacingRight=12;shape=cube;size=10;direction=south;fontStyle=4;html=1;rounded=0;shadow=0;comic=0;labelBackgroundColor=none;strokeWidth=1;fontFamily=Verdana;fontSize=12" parent="1" vertex="1">
          <mxGeometry x="530" y="70" width="330" height="220" as="geometry" />
        </mxCell>
        <mxCell id="39150e848f15840c-3" value="Block" style="verticalAlign=top;align=left;spacingTop=8;spacingLeft=2;spacingRight=12;shape=cube;size=10;direction=south;fontStyle=4;html=1;rounded=0;shadow=0;comic=0;labelBackgroundColor=none;strokeWidth=1;fontFamily=Verdana;fontSize=12" parent="1" vertex="1">
          <mxGeometry x="370" y="410" width="260" height="150" as="geometry" />
        </mxCell>
        <mxCell id="39150e848f15840c-4" value="&amp;laquo;interface&amp;raquo;&lt;br&gt;&lt;b&gt;Name&lt;/b&gt;" style="html=1;rounded=0;shadow=0;comic=0;labelBackgroundColor=none;strokeWidth=1;fontFamily=Verdana;fontSize=12;align=center;" parent="1" vertex="1">
          <mxGeometry x="160" y="140" width="110" height="50" as="geometry" />
        </mxCell>
        <mxCell id="39150e848f15840c-5" value="Module" style="shape=component;align=left;spacingLeft=36;rounded=0;shadow=0;comic=0;labelBackgroundColor=none;strokeWidth=1;fontFamily=Verdana;fontSize=12;html=1;" parent="1" vertex="1">
          <mxGeometry x="310" y="135" width="120" height="60" as="geometry" />
        </mxCell>
        <mxCell id="39150e848f15840c-6" value="" style="ellipse;whiteSpace=wrap;html=1;rounded=0;shadow=0;comic=0;labelBackgroundColor=none;strokeWidth=1;fontFamily=Verdana;fontSize=12;align=center;" parent="1" vertex="1">
          <mxGeometry x="360" y="230" width="20" height="20" as="geometry" />
        </mxCell>
        <mxCell id="39150e848f15840c-7" value="Module" style="shape=component;align=left;spacingLeft=36;rounded=0;shadow=0;comic=0;labelBackgroundColor=none;strokeWidth=1;fontFamily=Verdana;fontSize=12;html=1;" parent="1" vertex="1">
          <mxGeometry x="560" y="135" width="120" height="60" as="geometry" />
        </mxCell>
        <mxCell id="39150e848f15840c-8" value="&amp;laquo;interface&amp;raquo;&lt;br&gt;&lt;b&gt;Name&lt;/b&gt;" style="html=1;rounded=0;shadow=0;comic=0;labelBackgroundColor=none;strokeWidth=1;fontFamily=Verdana;fontSize=12;align=center;" parent="1" vertex="1">
          <mxGeometry x="720" y="140" width="110" height="50" as="geometry" />
        </mxCell>
        <mxCell id="39150e848f15840c-9" value="" style="ellipse;whiteSpace=wrap;html=1;rounded=0;shadow=0;comic=0;labelBackgroundColor=none;strokeWidth=1;fontFamily=Verdana;fontSize=12;align=center;" parent="1" vertex="1">
          <mxGeometry x="620" y="230" width="20" height="20" as="geometry" />
        </mxCell>
        <mxCell id="39150e848f15840c-10" value="Module" style="shape=component;align=left;spacingLeft=36;rounded=0;shadow=0;comic=0;labelBackgroundColor=none;strokeWidth=1;fontFamily=Verdana;fontSize=12;html=1;" parent="1" vertex="1">
          <mxGeometry x="440" y="460" width="120" height="60" as="geometry" />
        </mxCell>
        <mxCell id="39150e848f15840c-11" style="edgeStyle=none;rounded=0;html=1;dashed=1;labelBackgroundColor=none;startArrow=none;startFill=0;startSize=8;endArrow=open;endFill=0;endSize=16;fontFamily=Verdana;fontSize=12;" parent="1" source="39150e848f15840c-10" target="39150e848f15840c-6" edge="1">
          <mxGeometry relative="1" as="geometry" />
        </mxCell>
        <mxCell id="39150e848f15840c-12" style="edgeStyle=none;rounded=0;html=1;dashed=1;labelBackgroundColor=none;startArrow=none;startFill=0;startSize=8;endArrow=open;endFill=0;endSize=16;fontFamily=Verdana;fontSize=12;" parent="1" source="39150e848f15840c-3" target="39150e848f15840c-9" edge="1">
          <mxGeometry relative="1" as="geometry" />
        </mxCell>
        <mxCell id="39150e848f15840c-13" style="edgeStyle=elbowEdgeStyle;rounded=0;html=1;labelBackgroundColor=none;startArrow=none;startFill=0;startSize=8;endArrow=none;endFill=0;endSize=16;fontFamily=Verdana;fontSize=12;" parent="1" source="39150e848f15840c-9" target="39150e848f15840c-7" edge="1">
          <mxGeometry relative="1" as="geometry" />
        </mxCell>
        <mxCell id="39150e848f15840c-14" style="edgeStyle=elbowEdgeStyle;rounded=0;html=1;labelBackgroundColor=none;startArrow=none;startFill=0;startSize=8;endArrow=none;endFill=0;endSize=16;fontFamily=Verdana;fontSize=12;" parent="1" source="39150e848f15840c-6" target="39150e848f15840c-5" edge="1">
          <mxGeometry relative="1" as="geometry" />
        </mxCell>
        <mxCell id="39150e848f15840c-15" style="edgeStyle=orthogonalEdgeStyle;rounded=0;html=1;labelBackgroundColor=none;startArrow=none;startFill=0;startSize=8;endArrow=open;endFill=0;endSize=16;fontFamily=Verdana;fontSize=12;dashed=1;" parent="1" source="39150e848f15840c-5" target="39150e848f15840c-4" edge="1">
          <mxGeometry relative="1" as="geometry">
            <Array as="points">
              <mxPoint x="350" y="220" />
              <mxPoint x="215" y="220" />
            </Array>
          </mxGeometry>
        </mxCell>
        <mxCell id="39150e848f15840c-16" style="edgeStyle=orthogonalEdgeStyle;rounded=0;html=1;dashed=1;labelBackgroundColor=none;startArrow=none;startFill=0;startSize=8;endArrow=open;endFill=0;endSize=16;fontFamily=Verdana;fontSize=12;" parent="1" source="39150e848f15840c-7" target="39150e848f15840c-8" edge="1">
          <mxGeometry relative="1" as="geometry" />
        </mxCell>
        <mxCell id="39150e848f15840c-17" style="edgeStyle=orthogonalEdgeStyle;rounded=0;html=1;labelBackgroundColor=none;startArrow=none;startFill=0;startSize=8;endArrow=none;endFill=0;endSize=16;fontFamily=Verdana;fontSize=12;" parent="1" source="39150e848f15840c-3" target="39150e848f15840c-2" edge="1">
          <mxGeometry relative="1" as="geometry">
            <Array as="points">
              <mxPoint x="695" y="485" />
            </Array>
          </mxGeometry>
        </mxCell>
        <mxCell id="39150e848f15840c-18" style="edgeStyle=orthogonalEdgeStyle;rounded=0;html=1;labelBackgroundColor=none;startArrow=none;startFill=0;startSize=8;endArrow=none;endFill=0;endSize=16;fontFamily=Verdana;fontSize=12;" parent="1" source="39150e848f15840c-3" target="39150e848f15840c-1" edge="1">
          <mxGeometry relative="1" as="geometry">
            <Array as="points">
              <mxPoint x="285" y="485" />
            </Array>
          </mxGeometry>
        </mxCell>
      </root>
    </mxGraphModel>
  </diagram>
  <diagram id="R7dfKNaUChy6pA4Hdsvy" name="Strona-2">
    <mxGraphModel dx="320" dy="171" grid="1" gridSize="10" guides="1" tooltips="1" connect="1" arrows="1" fold="1" page="1" pageScale="1" pageWidth="827" pageHeight="1169" math="0" shadow="0">
      <root>
        <mxCell id="0" />
        <mxCell id="1" parent="0" />
        <mxCell id="6sUA-7qQJfoTrl72D4R1-1" value="Urlop" style="rounded=0;whiteSpace=wrap;html=1;fontSize=6;" vertex="1" parent="1">
          <mxGeometry x="40" y="40" width="40" height="20" as="geometry" />
        </mxCell>
        <mxCell id="6sUA-7qQJfoTrl72D4R1-4" value="" style="edgeStyle=elbowEdgeStyle;elbow=horizontal;endArrow=classic;html=1;rounded=0;fontSize=6;spacing=2;jumpSize=6;startSize=6;" edge="1" parent="1">
          <mxGeometry width="50" height="50" relative="1" as="geometry">
            <mxPoint x="80" y="20" as="sourcePoint" />
            <mxPoint x="120" y="40" as="targetPoint" />
            <Array as="points">
              <mxPoint x="100" y="30" />
            </Array>
          </mxGeometry>
        </mxCell>
        <mxCell id="6sUA-7qQJfoTrl72D4R1-5" value="Ekwiwalent" style="rounded=0;whiteSpace=wrap;html=1;fontSize=6;" vertex="1" parent="1">
          <mxGeometry x="40" y="70" width="40" height="20" as="geometry" />
        </mxCell>
        <mxCell id="6sUA-7qQJfoTrl72D4R1-6" value="Zasadnicze" style="rounded=0;whiteSpace=wrap;html=1;fontSize=6;" vertex="1" parent="1">
          <mxGeometry x="40" y="10" width="40" height="20" as="geometry" />
        </mxCell>
        <mxCell id="6sUA-7qQJfoTrl72D4R1-7" value="Premia brutto" style="rounded=0;whiteSpace=wrap;html=1;fontSize=6;" vertex="1" parent="1">
          <mxGeometry x="40" y="100" width="40" height="20" as="geometry" />
        </mxCell>
        <mxCell id="6sUA-7qQJfoTrl72D4R1-8" value="" style="edgeStyle=elbowEdgeStyle;elbow=horizontal;endArrow=classic;html=1;rounded=0;fontSize=6;spacing=2;jumpSize=6;startSize=6;" edge="1" parent="1">
          <mxGeometry width="50" height="50" relative="1" as="geometry">
            <mxPoint x="80" y="80" as="sourcePoint" />
            <mxPoint x="120" y="60" as="targetPoint" />
            <Array as="points">
              <mxPoint x="100" y="90" />
            </Array>
          </mxGeometry>
        </mxCell>
        <mxCell id="6sUA-7qQJfoTrl72D4R1-9" value="" style="endArrow=classic;html=1;rounded=0;fontSize=6;startSize=6;jumpSize=6;exitX=1;exitY=0.5;exitDx=0;exitDy=0;" edge="1" parent="1" source="6sUA-7qQJfoTrl72D4R1-1">
          <mxGeometry width="50" height="50" relative="1" as="geometry">
            <mxPoint x="180" y="90" as="sourcePoint" />
            <mxPoint x="120" y="50" as="targetPoint" />
          </mxGeometry>
        </mxCell>
        <mxCell id="6sUA-7qQJfoTrl72D4R1-10" value="Wyrównanie" style="rounded=0;whiteSpace=wrap;html=1;fontSize=6;" vertex="1" parent="1">
          <mxGeometry x="40" y="130" width="40" height="20" as="geometry" />
        </mxCell>
        <mxCell id="6sUA-7qQJfoTrl72D4R1-11" value="" style="edgeStyle=elbowEdgeStyle;elbow=horizontal;endArrow=classic;html=1;rounded=0;fontSize=6;spacing=2;jumpSize=6;startSize=6;" edge="1" parent="1">
          <mxGeometry width="50" height="50" relative="1" as="geometry">
            <mxPoint x="80" y="140" as="sourcePoint" />
            <mxPoint x="120" y="130" as="targetPoint" />
            <Array as="points">
              <mxPoint x="100" y="150" />
            </Array>
          </mxGeometry>
        </mxCell>
        <mxCell id="6sUA-7qQJfoTrl72D4R1-12" value="" style="edgeStyle=elbowEdgeStyle;elbow=horizontal;endArrow=classic;html=1;rounded=0;fontSize=6;spacing=2;jumpSize=6;startSize=6;" edge="1" parent="1">
          <mxGeometry width="50" height="50" relative="1" as="geometry">
            <mxPoint x="80" y="110" as="sourcePoint" />
            <mxPoint x="120" y="120" as="targetPoint" />
            <Array as="points">
              <mxPoint x="100" y="120" />
            </Array>
          </mxGeometry>
        </mxCell>
        <mxCell id="6sUA-7qQJfoTrl72D4R1-13" value="Suma skł Brutto" style="rounded=0;whiteSpace=wrap;html=1;fontSize=6;" vertex="1" parent="1">
          <mxGeometry x="120" y="30" width="40" height="40" as="geometry" />
        </mxCell>
        <mxCell id="6sUA-7qQJfoTrl72D4R1-14" value="Suma skł dodatkowych" style="rounded=0;whiteSpace=wrap;html=1;fontSize=6;" vertex="1" parent="1">
          <mxGeometry x="120" y="110" width="40" height="30" as="geometry" />
        </mxCell>
        <mxCell id="6sUA-7qQJfoTrl72D4R1-21" value="Klasa Wchodzi do Sumy Przychodów" style="ellipse;whiteSpace=wrap;html=1;aspect=fixed;fontSize=6;" vertex="1" parent="1">
          <mxGeometry x="190" y="70" width="40" height="40" as="geometry" />
        </mxCell>
        <mxCell id="6sUA-7qQJfoTrl72D4R1-22" value="" style="edgeStyle=elbowEdgeStyle;elbow=horizontal;endArrow=classic;html=1;rounded=0;fontSize=6;spacing=2;jumpSize=6;startSize=6;entryX=0.42;entryY=1.002;entryDx=0;entryDy=0;entryPerimeter=0;exitX=1;exitY=0.75;exitDx=0;exitDy=0;" edge="1" parent="1" source="6sUA-7qQJfoTrl72D4R1-10" target="6sUA-7qQJfoTrl72D4R1-21">
          <mxGeometry width="50" height="50" relative="1" as="geometry">
            <mxPoint x="80" y="140" as="sourcePoint" />
            <mxPoint x="130" y="140" as="targetPoint" />
            <Array as="points">
              <mxPoint x="180" y="140" />
              <mxPoint x="180" y="150" />
              <mxPoint x="180" y="150" />
              <mxPoint x="180" y="130" />
              <mxPoint x="180" y="140" />
            </Array>
          </mxGeometry>
        </mxCell>
        <mxCell id="6sUA-7qQJfoTrl72D4R1-23" value="" style="edgeStyle=elbowEdgeStyle;elbow=horizontal;endArrow=classic;html=1;rounded=0;fontSize=6;spacing=2;jumpSize=6;startSize=6;exitX=1;exitY=0.75;exitDx=0;exitDy=0;entryX=0;entryY=0;entryDx=0;entryDy=0;" edge="1" parent="1" source="6sUA-7qQJfoTrl72D4R1-1" target="6sUA-7qQJfoTrl72D4R1-21">
          <mxGeometry width="50" height="50" relative="1" as="geometry">
            <mxPoint x="90" y="155" as="sourcePoint" />
            <mxPoint x="230" y="120" as="targetPoint" />
            <Array as="points">
              <mxPoint x="90" y="80" />
              <mxPoint x="190" y="160" />
              <mxPoint x="190" y="160" />
              <mxPoint x="190" y="140" />
              <mxPoint x="190" y="150" />
            </Array>
          </mxGeometry>
        </mxCell>
        <mxCell id="6sUA-7qQJfoTrl72D4R1-24" value="" style="edgeStyle=elbowEdgeStyle;elbow=horizontal;endArrow=classic;html=1;rounded=0;fontSize=6;spacing=2;jumpSize=6;startSize=6;entryX=0.5;entryY=0;entryDx=0;entryDy=0;exitX=1;exitY=0.25;exitDx=0;exitDy=0;" edge="1" parent="1" source="6sUA-7qQJfoTrl72D4R1-6" target="6sUA-7qQJfoTrl72D4R1-21">
          <mxGeometry width="50" height="50" relative="1" as="geometry">
            <mxPoint x="100" y="165" as="sourcePoint" />
            <mxPoint x="226.79999999999995" y="130.08000000000004" as="targetPoint" />
            <Array as="points">
              <mxPoint x="170" y="20" />
              <mxPoint x="200" y="170" />
              <mxPoint x="200" y="170" />
              <mxPoint x="200" y="150" />
              <mxPoint x="200" y="160" />
            </Array>
          </mxGeometry>
        </mxCell>
        <mxCell id="6sUA-7qQJfoTrl72D4R1-26" value="" style="endArrow=classic;html=1;rounded=0;fontSize=6;startSize=6;jumpSize=6;entryX=0.025;entryY=0.381;entryDx=0;entryDy=0;entryPerimeter=0;exitX=1;exitY=0.75;exitDx=0;exitDy=0;" edge="1" parent="1" source="6sUA-7qQJfoTrl72D4R1-5" target="6sUA-7qQJfoTrl72D4R1-21">
          <mxGeometry width="50" height="50" relative="1" as="geometry">
            <mxPoint x="80" y="90" as="sourcePoint" />
            <mxPoint x="120" y="89.84" as="targetPoint" />
          </mxGeometry>
        </mxCell>
        <mxCell id="6sUA-7qQJfoTrl72D4R1-27" value="" style="endArrow=classic;html=1;rounded=0;fontSize=6;startSize=6;jumpSize=6;exitX=1;exitY=0.25;exitDx=0;exitDy=0;entryX=0;entryY=1;entryDx=0;entryDy=0;" edge="1" parent="1" source="6sUA-7qQJfoTrl72D4R1-7" target="6sUA-7qQJfoTrl72D4R1-21">
          <mxGeometry width="50" height="50" relative="1" as="geometry">
            <mxPoint x="80" y="100" as="sourcePoint" />
            <mxPoint x="190" y="100" as="targetPoint" />
          </mxGeometry>
        </mxCell>
        <mxCell id="6sUA-7qQJfoTrl72D4R1-28" value="Klasa Suma Skł Brutto" style="ellipse;whiteSpace=wrap;html=1;aspect=fixed;fontSize=6;" vertex="1" parent="1">
          <mxGeometry x="190" y="20" width="40" height="40" as="geometry" />
        </mxCell>
        <mxCell id="6sUA-7qQJfoTrl72D4R1-29" value="" style="edgeStyle=elbowEdgeStyle;elbow=horizontal;endArrow=classic;html=1;rounded=0;fontSize=6;spacing=2;jumpSize=6;startSize=6;exitX=1.017;exitY=0.117;exitDx=0;exitDy=0;exitPerimeter=0;" edge="1" parent="1" source="6sUA-7qQJfoTrl72D4R1-5">
          <mxGeometry width="50" height="50" relative="1" as="geometry">
            <mxPoint x="90" y="30" as="sourcePoint" />
            <mxPoint x="200" y="23" as="targetPoint" />
            <Array as="points">
              <mxPoint x="110" y="70" />
            </Array>
          </mxGeometry>
        </mxCell>
        <mxCell id="6sUA-7qQJfoTrl72D4R1-31" value="" style="edgeStyle=elbowEdgeStyle;elbow=horizontal;endArrow=classic;html=1;rounded=0;fontSize=6;spacing=2;jumpSize=6;startSize=6;exitX=1;exitY=0.25;exitDx=0;exitDy=0;entryX=0.115;entryY=0.179;entryDx=0;entryDy=0;entryPerimeter=0;" edge="1" parent="1" source="6sUA-7qQJfoTrl72D4R1-1" target="6sUA-7qQJfoTrl72D4R1-28">
          <mxGeometry width="50" height="50" relative="1" as="geometry">
            <mxPoint x="110" y="50" as="sourcePoint" />
            <mxPoint x="180" y="30" as="targetPoint" />
            <Array as="points">
              <mxPoint x="90" y="40" />
            </Array>
          </mxGeometry>
        </mxCell>
        <mxCell id="6sUA-7qQJfoTrl72D4R1-32" value="" style="edgeStyle=elbowEdgeStyle;elbow=horizontal;endArrow=classic;html=1;rounded=0;fontSize=6;spacing=2;jumpSize=6;startSize=6;entryX=0.43;entryY=-0.006;entryDx=0;entryDy=0;entryPerimeter=0;" edge="1" parent="1" target="6sUA-7qQJfoTrl72D4R1-28">
          <mxGeometry width="50" height="50" relative="1" as="geometry">
            <mxPoint x="80" y="10" as="sourcePoint" />
            <mxPoint x="210" y="10" as="targetPoint" />
            <Array as="points">
              <mxPoint x="180" y="20" />
            </Array>
          </mxGeometry>
        </mxCell>
      </root>
    </mxGraphModel>
  </diagram>
</mxfile>
